M48
; DRILL file {KiCad (5.1.10)-1} date 12/13/21 18:42:27
; FORMAT={2:4/ absolute / inch / suppress leading zeros}
; #@! TF.CreationDate,2021-12-13T18:42:27+00:00
; #@! TF.GenerationSoftware,Kicad,Pcbnew,(5.1.10)-1
FMAT,2
INCH,TZ
T1C0.0157
T2C0.0315
T3C0.0394
T4C0.0630
T5C0.1260
%
G90
G05
T1
X39081Y-19337
X40017Y-23733
X40248Y-44354
X40661Y-43782
X41145Y-45512
X42789Y-45046
X43213Y-45001
X43584Y-45510
X44138Y-18854
X45333Y-23406
X45660Y-45337
X46043Y-39030
X46060Y-24302
X46138Y-44903
X46279Y-27163
X46529Y-23058
X46798Y-44460
X47014Y-45469
X47239Y-43680
X48083Y-45003
X48168Y-31631
X48171Y-34908
X48311Y-31232
X48513Y-32383
X48673Y-44384
X48829Y-34444
X49302Y-28384
X49434Y-45501
X49594Y-25735
X49721Y-32399
X49744Y-36126
X49747Y-36780
X49887Y-28384
X50033Y-33523
X50158Y-43181
X50182Y-39448
X50554Y-36727
X50623Y-42891
X50731Y-31744
X50765Y-19625
X50981Y-34890
X50999Y-40015
X51114Y-45506
X51389Y-36727
X51758Y-35361
X52288Y-35766
X54284Y-21262
X54386Y-38246
X54411Y-35473
X55272Y-28921
X55328Y-20772
X55915Y-39481
X56158Y-45188
X56266Y-37371
X56277Y-42892
X56552Y-45273
X57064Y-41998
X57069Y-23297
X57087Y-39156
X57271Y-40973
X57393Y-27643
X57601Y-43800
X57700Y-33611
X57790Y-38591
X58008Y-38246
X58142Y-32261
X58232Y-23110
X58386Y-34316
X58494Y-38709
X58721Y-33032
X58865Y-45511
X58874Y-24884
X58875Y-41315
X59128Y-31732
X59152Y-39390
X59437Y-36875
X59632Y-24309
X59830Y-44580
X60078Y-23403
X60187Y-31144
X60668Y-44758
X61067Y-37032
X61398Y-24895
X61400Y-43922
X61670Y-43369
X62212Y-42779
X62367Y-39201
X62791Y-24476
X62794Y-42248
X62997Y-27833
X63087Y-37317
X63959Y-42710
X64054Y-36664
X64255Y-42143
X64584Y-21203
X65210Y-41021
X65544Y-44829
X66259Y-43979
X66367Y-34112
X66370Y-34577
X66722Y-41781
X67351Y-29058
X67954Y-29832
X68426Y-44016
X68856Y-19772
X69054Y-26299
X69564Y-26172
X75150Y-18076
X76221Y-37762
T2
X38638Y-20154
X38638Y-22094
X39638Y-20154
X39638Y-22094
X40638Y-20154
X40638Y-22094
X41638Y-20154
X41638Y-22094
X42638Y-20154
X42638Y-22094
X43638Y-20154
X43638Y-22094
X44638Y-20154
X44638Y-22094
X45638Y-20154
X45638Y-22094
X46638Y-20154
X46638Y-22094
X47218Y-25474
X47218Y-26474
X47218Y-27474
X47218Y-28474
X47218Y-29474
X47218Y-30474
X47218Y-31474
X47218Y-32474
X47218Y-33474
X47218Y-34474
X47218Y-35474
X47218Y-36474
X47218Y-37474
X47218Y-38474
X47638Y-20154
X47638Y-22094
X53218Y-25474
X53218Y-26474
X53218Y-27474
X53218Y-28474
X53218Y-29474
X53218Y-30474
X53218Y-31474
X53218Y-32474
X53218Y-33474
X53218Y-34474
X53218Y-35474
X53218Y-36474
X53218Y-37474
X53218Y-38474
X54736Y-20398
X54742Y-22174
X55736Y-20398
X55742Y-22174
X55830Y-27012
X55830Y-28012
X55830Y-29012
X55830Y-30012
X55830Y-31012
X55830Y-32012
X55830Y-33012
X55830Y-34012
X55830Y-35012
X56736Y-20398
X56742Y-22174
X56830Y-26012
X56830Y-27012
X56830Y-28012
X56830Y-29012
X56830Y-30012
X56830Y-31012
X56830Y-32012
X56830Y-33012
X56830Y-34012
X56830Y-35012
X56830Y-36012
X57736Y-20398
X57742Y-22174
X57830Y-26012
X57830Y-27012
X57830Y-35012
X57830Y-36012
X58736Y-20398
X58742Y-22174
X58830Y-26012
X58830Y-27012
X58830Y-35012
X58830Y-36012
X59736Y-20398
X59742Y-22174
X59830Y-26012
X59830Y-27012
X59830Y-35012
X59830Y-36012
X60736Y-20398
X60742Y-22174
X60830Y-26012
X60830Y-27012
X60830Y-35012
X60830Y-36012
X61736Y-20398
X61742Y-22174
X61830Y-26012
X61830Y-27012
X61830Y-35012
X61830Y-36012
X62736Y-20398
X62742Y-22174
X62830Y-26012
X62830Y-27012
X62830Y-35012
X62830Y-36012
X63736Y-20398
X63742Y-22174
X63830Y-26012
X63830Y-27012
X63830Y-35012
X63830Y-36012
X64830Y-26012
X64830Y-27012
X64830Y-28012
X64830Y-29012
X64830Y-30012
X64830Y-31012
X64830Y-32012
X64830Y-33012
X64830Y-34012
X64830Y-35012
X64830Y-36012
X65830Y-27012
X65830Y-28012
X65830Y-29012
X65830Y-30012
X65830Y-31012
X65830Y-32012
X65830Y-33012
X65830Y-34012
X65830Y-35012
T3
X38380Y-24062
X38380Y-25062
X38380Y-26062
X38380Y-27062
X38380Y-28062
X38380Y-29062
X38380Y-30062
X38380Y-31062
X38380Y-32062
X38380Y-33062
X38380Y-34062
X38380Y-35062
X38380Y-36062
X38380Y-37062
X38380Y-38062
X38380Y-39062
X38380Y-40062
X38380Y-41062
X38380Y-42062
X38380Y-43062
X39746Y-16534
X39746Y-17534
X40746Y-16534
X40746Y-17534
X41746Y-16534
X41746Y-17534
X42746Y-16534
X42746Y-17534
X43746Y-16534
X43746Y-17534
X44380Y-24062
X44380Y-25062
X44380Y-26062
X44380Y-27062
X44380Y-28062
X44380Y-29062
X44380Y-30062
X44380Y-31062
X44380Y-32062
X44380Y-33062
X44380Y-34062
X44380Y-35062
X44380Y-36062
X44380Y-37062
X44380Y-38062
X44380Y-39062
X44380Y-40062
X44380Y-41062
X44380Y-42062
X44380Y-43062
X44746Y-16534
X44746Y-17534
X45746Y-16534
X45746Y-17534
X46746Y-16534
X46746Y-17534
X47746Y-16534
X47746Y-17534
X48746Y-16534
X48746Y-17534
X49746Y-16534
X49746Y-17534
X50610Y-21316
X50610Y-22316
X50746Y-16534
X50746Y-17534
X51746Y-16534
X51746Y-17534
X52694Y-21316
X52694Y-22316
X52746Y-16534
X52746Y-17534
X53746Y-16534
X53746Y-17534
X54746Y-16534
X54746Y-17534
X55738Y-40510
X55738Y-41510
X55738Y-42510
X55746Y-16534
X55746Y-17534
X56738Y-40510
X56738Y-41510
X56738Y-42510
X56746Y-16534
X56746Y-17534
X57746Y-16534
X57746Y-17534
X58746Y-16534
X58746Y-17534
X59746Y-16534
X59746Y-17534
X60068Y-40492
X60068Y-41492
X60068Y-42492
X60746Y-16534
X60746Y-17534
X61068Y-40492
X61068Y-41492
X61068Y-42492
X61746Y-16534
X61746Y-17534
X62746Y-16534
X62746Y-17534
X63746Y-16534
X63746Y-17534
X68856Y-17268
X68856Y-18268
X74270Y-26942
X74270Y-28033
X74270Y-29123
X74270Y-30214
X74270Y-31304
X74270Y-32395
X74270Y-33485
X74270Y-34576
X74270Y-35666
X74270Y-36757
X74270Y-37848
X74270Y-38938
X74270Y-40029
X75388Y-27487
X75388Y-28578
X75388Y-29668
X75388Y-30759
X75388Y-31849
X75388Y-32940
X75388Y-34031
X75388Y-35121
X75388Y-36212
X75388Y-37302
X75388Y-38393
X75388Y-39483
T4
X69878Y-24058
X69878Y-29058
T5
X74388Y-24214
X74388Y-42757
T0
M30
