%TF.GenerationSoftware,KiCad,Pcbnew,(5.1.10)-1*%
%TF.CreationDate,2021-12-13T18:42:30+00:00*%
%TF.ProjectId,isascsi,69736173-6373-4692-9e6b-696361645f70,rev?*%
%TF.SameCoordinates,Original*%
%TF.FileFunction,Legend,Bot*%
%TF.FilePolarity,Positive*%
%FSLAX46Y46*%
G04 Gerber Fmt 4.6, Leading zero omitted, Abs format (unit mm)*
G04 Created by KiCad (PCBNEW (5.1.10)-1) date 2021-12-13 18:42:30*
%MOMM*%
%LPD*%
G01*
G04 APERTURE LIST*
%ADD10C,0.120000*%
%ADD11C,0.150000*%
G04 APERTURE END LIST*
D10*
%TO.C,C6*%
X127266064Y-88233800D02*
X126061936Y-88233800D01*
X127266064Y-90053800D02*
X126061936Y-90053800D01*
%TO.C,C3*%
X158359936Y-73823200D02*
X159564064Y-73823200D01*
X158359936Y-72003200D02*
X159564064Y-72003200D01*
%TO.C,C5*%
X142440936Y-96798700D02*
X143645064Y-96798700D01*
X142440936Y-98618700D02*
X143645064Y-98618700D01*
%TO.C,C2*%
X158426936Y-82874400D02*
X159631064Y-82874400D01*
X158426936Y-84694400D02*
X159631064Y-84694400D01*
%TO.C,R1*%
X127457064Y-76153600D02*
X126252936Y-76153600D01*
X127457064Y-77973600D02*
X126252936Y-77973600D01*
%TO.C,C6*%
D11*
X126830666Y-87680942D02*
X126878285Y-87728561D01*
X127021142Y-87776180D01*
X127116380Y-87776180D01*
X127259238Y-87728561D01*
X127354476Y-87633323D01*
X127402095Y-87538085D01*
X127449714Y-87347609D01*
X127449714Y-87204752D01*
X127402095Y-87014276D01*
X127354476Y-86919038D01*
X127259238Y-86823800D01*
X127116380Y-86776180D01*
X127021142Y-86776180D01*
X126878285Y-86823800D01*
X126830666Y-86871419D01*
X125973523Y-86776180D02*
X126164000Y-86776180D01*
X126259238Y-86823800D01*
X126306857Y-86871419D01*
X126402095Y-87014276D01*
X126449714Y-87204752D01*
X126449714Y-87585704D01*
X126402095Y-87680942D01*
X126354476Y-87728561D01*
X126259238Y-87776180D01*
X126068761Y-87776180D01*
X125973523Y-87728561D01*
X125925904Y-87680942D01*
X125878285Y-87585704D01*
X125878285Y-87347609D01*
X125925904Y-87252371D01*
X125973523Y-87204752D01*
X126068761Y-87157133D01*
X126259238Y-87157133D01*
X126354476Y-87204752D01*
X126402095Y-87252371D01*
X126449714Y-87347609D01*
X128783047Y-90416180D02*
X128687809Y-90416180D01*
X128592571Y-90463800D01*
X128544952Y-90511419D01*
X128497333Y-90606657D01*
X128449714Y-90797133D01*
X128449714Y-91035228D01*
X128497333Y-91225704D01*
X128544952Y-91320942D01*
X128592571Y-91368561D01*
X128687809Y-91416180D01*
X128783047Y-91416180D01*
X128878285Y-91368561D01*
X128925904Y-91320942D01*
X128973523Y-91225704D01*
X129021142Y-91035228D01*
X129021142Y-90797133D01*
X128973523Y-90606657D01*
X128925904Y-90511419D01*
X128878285Y-90463800D01*
X128783047Y-90416180D01*
X128021142Y-91320942D02*
X127973523Y-91368561D01*
X128021142Y-91416180D01*
X128068761Y-91368561D01*
X128021142Y-91320942D01*
X128021142Y-91416180D01*
X127354476Y-90416180D02*
X127259238Y-90416180D01*
X127164000Y-90463800D01*
X127116380Y-90511419D01*
X127068761Y-90606657D01*
X127021142Y-90797133D01*
X127021142Y-91035228D01*
X127068761Y-91225704D01*
X127116380Y-91320942D01*
X127164000Y-91368561D01*
X127259238Y-91416180D01*
X127354476Y-91416180D01*
X127449714Y-91368561D01*
X127497333Y-91320942D01*
X127544952Y-91225704D01*
X127592571Y-91035228D01*
X127592571Y-90797133D01*
X127544952Y-90606657D01*
X127497333Y-90511419D01*
X127449714Y-90463800D01*
X127354476Y-90416180D01*
X126068761Y-91416180D02*
X126640190Y-91416180D01*
X126354476Y-91416180D02*
X126354476Y-90416180D01*
X126449714Y-90559038D01*
X126544952Y-90654276D01*
X126640190Y-90701895D01*
X125211619Y-90749514D02*
X125211619Y-91416180D01*
X125640190Y-90749514D02*
X125640190Y-91273323D01*
X125592571Y-91368561D01*
X125497333Y-91416180D01*
X125354476Y-91416180D01*
X125259238Y-91368561D01*
X125211619Y-91320942D01*
X124402095Y-90892371D02*
X124735428Y-90892371D01*
X124735428Y-91416180D02*
X124735428Y-90416180D01*
X124259238Y-90416180D01*
%TO.C,C3*%
X159128666Y-75090342D02*
X159176285Y-75137961D01*
X159319142Y-75185580D01*
X159414380Y-75185580D01*
X159557238Y-75137961D01*
X159652476Y-75042723D01*
X159700095Y-74947485D01*
X159747714Y-74757009D01*
X159747714Y-74614152D01*
X159700095Y-74423676D01*
X159652476Y-74328438D01*
X159557238Y-74233200D01*
X159414380Y-74185580D01*
X159319142Y-74185580D01*
X159176285Y-74233200D01*
X159128666Y-74280819D01*
X158795333Y-74185580D02*
X158176285Y-74185580D01*
X158509619Y-74566533D01*
X158366761Y-74566533D01*
X158271523Y-74614152D01*
X158223904Y-74661771D01*
X158176285Y-74757009D01*
X158176285Y-74995104D01*
X158223904Y-75090342D01*
X158271523Y-75137961D01*
X158366761Y-75185580D01*
X158652476Y-75185580D01*
X158747714Y-75137961D01*
X158795333Y-75090342D01*
X161081047Y-70545580D02*
X160985809Y-70545580D01*
X160890571Y-70593200D01*
X160842952Y-70640819D01*
X160795333Y-70736057D01*
X160747714Y-70926533D01*
X160747714Y-71164628D01*
X160795333Y-71355104D01*
X160842952Y-71450342D01*
X160890571Y-71497961D01*
X160985809Y-71545580D01*
X161081047Y-71545580D01*
X161176285Y-71497961D01*
X161223904Y-71450342D01*
X161271523Y-71355104D01*
X161319142Y-71164628D01*
X161319142Y-70926533D01*
X161271523Y-70736057D01*
X161223904Y-70640819D01*
X161176285Y-70593200D01*
X161081047Y-70545580D01*
X160319142Y-71450342D02*
X160271523Y-71497961D01*
X160319142Y-71545580D01*
X160366761Y-71497961D01*
X160319142Y-71450342D01*
X160319142Y-71545580D01*
X159652476Y-70545580D02*
X159557238Y-70545580D01*
X159462000Y-70593200D01*
X159414380Y-70640819D01*
X159366761Y-70736057D01*
X159319142Y-70926533D01*
X159319142Y-71164628D01*
X159366761Y-71355104D01*
X159414380Y-71450342D01*
X159462000Y-71497961D01*
X159557238Y-71545580D01*
X159652476Y-71545580D01*
X159747714Y-71497961D01*
X159795333Y-71450342D01*
X159842952Y-71355104D01*
X159890571Y-71164628D01*
X159890571Y-70926533D01*
X159842952Y-70736057D01*
X159795333Y-70640819D01*
X159747714Y-70593200D01*
X159652476Y-70545580D01*
X158366761Y-71545580D02*
X158938190Y-71545580D01*
X158652476Y-71545580D02*
X158652476Y-70545580D01*
X158747714Y-70688438D01*
X158842952Y-70783676D01*
X158938190Y-70831295D01*
X157509619Y-70878914D02*
X157509619Y-71545580D01*
X157938190Y-70878914D02*
X157938190Y-71402723D01*
X157890571Y-71497961D01*
X157795333Y-71545580D01*
X157652476Y-71545580D01*
X157557238Y-71497961D01*
X157509619Y-71450342D01*
X156700095Y-71021771D02*
X157033428Y-71021771D01*
X157033428Y-71545580D02*
X157033428Y-70545580D01*
X156557238Y-70545580D01*
%TO.C,C5*%
X143209666Y-99885842D02*
X143257285Y-99933461D01*
X143400142Y-99981080D01*
X143495380Y-99981080D01*
X143638238Y-99933461D01*
X143733476Y-99838223D01*
X143781095Y-99742985D01*
X143828714Y-99552509D01*
X143828714Y-99409652D01*
X143781095Y-99219176D01*
X143733476Y-99123938D01*
X143638238Y-99028700D01*
X143495380Y-98981080D01*
X143400142Y-98981080D01*
X143257285Y-99028700D01*
X143209666Y-99076319D01*
X142304904Y-98981080D02*
X142781095Y-98981080D01*
X142828714Y-99457271D01*
X142781095Y-99409652D01*
X142685857Y-99362033D01*
X142447761Y-99362033D01*
X142352523Y-99409652D01*
X142304904Y-99457271D01*
X142257285Y-99552509D01*
X142257285Y-99790604D01*
X142304904Y-99885842D01*
X142352523Y-99933461D01*
X142447761Y-99981080D01*
X142685857Y-99981080D01*
X142781095Y-99933461D01*
X142828714Y-99885842D01*
X145162047Y-95341080D02*
X145066809Y-95341080D01*
X144971571Y-95388700D01*
X144923952Y-95436319D01*
X144876333Y-95531557D01*
X144828714Y-95722033D01*
X144828714Y-95960128D01*
X144876333Y-96150604D01*
X144923952Y-96245842D01*
X144971571Y-96293461D01*
X145066809Y-96341080D01*
X145162047Y-96341080D01*
X145257285Y-96293461D01*
X145304904Y-96245842D01*
X145352523Y-96150604D01*
X145400142Y-95960128D01*
X145400142Y-95722033D01*
X145352523Y-95531557D01*
X145304904Y-95436319D01*
X145257285Y-95388700D01*
X145162047Y-95341080D01*
X144400142Y-96245842D02*
X144352523Y-96293461D01*
X144400142Y-96341080D01*
X144447761Y-96293461D01*
X144400142Y-96245842D01*
X144400142Y-96341080D01*
X143733476Y-95341080D02*
X143638238Y-95341080D01*
X143543000Y-95388700D01*
X143495380Y-95436319D01*
X143447761Y-95531557D01*
X143400142Y-95722033D01*
X143400142Y-95960128D01*
X143447761Y-96150604D01*
X143495380Y-96245842D01*
X143543000Y-96293461D01*
X143638238Y-96341080D01*
X143733476Y-96341080D01*
X143828714Y-96293461D01*
X143876333Y-96245842D01*
X143923952Y-96150604D01*
X143971571Y-95960128D01*
X143971571Y-95722033D01*
X143923952Y-95531557D01*
X143876333Y-95436319D01*
X143828714Y-95388700D01*
X143733476Y-95341080D01*
X142447761Y-96341080D02*
X143019190Y-96341080D01*
X142733476Y-96341080D02*
X142733476Y-95341080D01*
X142828714Y-95483938D01*
X142923952Y-95579176D01*
X143019190Y-95626795D01*
X141590619Y-95674414D02*
X141590619Y-96341080D01*
X142019190Y-95674414D02*
X142019190Y-96198223D01*
X141971571Y-96293461D01*
X141876333Y-96341080D01*
X141733476Y-96341080D01*
X141638238Y-96293461D01*
X141590619Y-96245842D01*
X140781095Y-95817271D02*
X141114428Y-95817271D01*
X141114428Y-96341080D02*
X141114428Y-95341080D01*
X140638238Y-95341080D01*
%TO.C,C2*%
X159195666Y-85961542D02*
X159243285Y-86009161D01*
X159386142Y-86056780D01*
X159481380Y-86056780D01*
X159624238Y-86009161D01*
X159719476Y-85913923D01*
X159767095Y-85818685D01*
X159814714Y-85628209D01*
X159814714Y-85485352D01*
X159767095Y-85294876D01*
X159719476Y-85199638D01*
X159624238Y-85104400D01*
X159481380Y-85056780D01*
X159386142Y-85056780D01*
X159243285Y-85104400D01*
X159195666Y-85152019D01*
X158814714Y-85152019D02*
X158767095Y-85104400D01*
X158671857Y-85056780D01*
X158433761Y-85056780D01*
X158338523Y-85104400D01*
X158290904Y-85152019D01*
X158243285Y-85247257D01*
X158243285Y-85342495D01*
X158290904Y-85485352D01*
X158862333Y-86056780D01*
X158243285Y-86056780D01*
X161148047Y-81416780D02*
X161052809Y-81416780D01*
X160957571Y-81464400D01*
X160909952Y-81512019D01*
X160862333Y-81607257D01*
X160814714Y-81797733D01*
X160814714Y-82035828D01*
X160862333Y-82226304D01*
X160909952Y-82321542D01*
X160957571Y-82369161D01*
X161052809Y-82416780D01*
X161148047Y-82416780D01*
X161243285Y-82369161D01*
X161290904Y-82321542D01*
X161338523Y-82226304D01*
X161386142Y-82035828D01*
X161386142Y-81797733D01*
X161338523Y-81607257D01*
X161290904Y-81512019D01*
X161243285Y-81464400D01*
X161148047Y-81416780D01*
X160386142Y-82321542D02*
X160338523Y-82369161D01*
X160386142Y-82416780D01*
X160433761Y-82369161D01*
X160386142Y-82321542D01*
X160386142Y-82416780D01*
X159719476Y-81416780D02*
X159624238Y-81416780D01*
X159529000Y-81464400D01*
X159481380Y-81512019D01*
X159433761Y-81607257D01*
X159386142Y-81797733D01*
X159386142Y-82035828D01*
X159433761Y-82226304D01*
X159481380Y-82321542D01*
X159529000Y-82369161D01*
X159624238Y-82416780D01*
X159719476Y-82416780D01*
X159814714Y-82369161D01*
X159862333Y-82321542D01*
X159909952Y-82226304D01*
X159957571Y-82035828D01*
X159957571Y-81797733D01*
X159909952Y-81607257D01*
X159862333Y-81512019D01*
X159814714Y-81464400D01*
X159719476Y-81416780D01*
X158433761Y-82416780D02*
X159005190Y-82416780D01*
X158719476Y-82416780D02*
X158719476Y-81416780D01*
X158814714Y-81559638D01*
X158909952Y-81654876D01*
X159005190Y-81702495D01*
X157576619Y-81750114D02*
X157576619Y-82416780D01*
X158005190Y-81750114D02*
X158005190Y-82273923D01*
X157957571Y-82369161D01*
X157862333Y-82416780D01*
X157719476Y-82416780D01*
X157624238Y-82369161D01*
X157576619Y-82321542D01*
X156767095Y-81892971D02*
X157100428Y-81892971D01*
X157100428Y-82416780D02*
X157100428Y-81416780D01*
X156624238Y-81416780D01*
%TO.C,R1*%
X127021666Y-75695980D02*
X127355000Y-75219790D01*
X127593095Y-75695980D02*
X127593095Y-74695980D01*
X127212142Y-74695980D01*
X127116904Y-74743600D01*
X127069285Y-74791219D01*
X127021666Y-74886457D01*
X127021666Y-75029314D01*
X127069285Y-75124552D01*
X127116904Y-75172171D01*
X127212142Y-75219790D01*
X127593095Y-75219790D01*
X126069285Y-75695980D02*
X126640714Y-75695980D01*
X126355000Y-75695980D02*
X126355000Y-74695980D01*
X126450238Y-74838838D01*
X126545476Y-74934076D01*
X126640714Y-74981695D01*
X127545476Y-79335980D02*
X128116904Y-79335980D01*
X127831190Y-79335980D02*
X127831190Y-78335980D01*
X127926428Y-78478838D01*
X128021666Y-78574076D01*
X128116904Y-78621695D01*
X126926428Y-78335980D02*
X126831190Y-78335980D01*
X126735952Y-78383600D01*
X126688333Y-78431219D01*
X126640714Y-78526457D01*
X126593095Y-78716933D01*
X126593095Y-78955028D01*
X126640714Y-79145504D01*
X126688333Y-79240742D01*
X126735952Y-79288361D01*
X126831190Y-79335980D01*
X126926428Y-79335980D01*
X127021666Y-79288361D01*
X127069285Y-79240742D01*
X127116904Y-79145504D01*
X127164523Y-78955028D01*
X127164523Y-78716933D01*
X127116904Y-78526457D01*
X127069285Y-78431219D01*
X127021666Y-78383600D01*
X126926428Y-78335980D01*
X126164523Y-79335980D02*
X126164523Y-78335980D01*
X125593095Y-79335980D02*
X126021666Y-78764552D01*
X125593095Y-78335980D02*
X126164523Y-78907409D01*
%TD*%
M02*
