%TF.GenerationSoftware,KiCad,Pcbnew,(5.1.10)-1*%
%TF.CreationDate,2021-12-13T18:42:30+00:00*%
%TF.ProjectId,isascsi,69736173-6373-4692-9e6b-696361645f70,rev?*%
%TF.SameCoordinates,Original*%
%TF.FileFunction,Soldermask,Top*%
%TF.FilePolarity,Negative*%
%FSLAX46Y46*%
G04 Gerber Fmt 4.6, Leading zero omitted, Abs format (unit mm)*
G04 Created by KiCad (PCBNEW (5.1.10)-1) date 2021-12-13 18:42:30*
%MOMM*%
%LPD*%
G01*
G04 APERTURE LIST*
%ADD10C,1.800000*%
%ADD11O,1.700000X1.700000*%
%ADD12O,2.500000X1.700000*%
%ADD13C,4.100000*%
%ADD14C,1.700000*%
%ADD15O,1.800000X1.800000*%
%ADD16O,3.300000X3.300000*%
%ADD17C,1.522400*%
%ADD18C,0.254000*%
%ADD19C,0.100000*%
G04 APERTURE END LIST*
D10*
%TO.C,U1*%
X112725200Y-61117500D03*
G36*
G01*
X96585200Y-61967500D02*
X96585200Y-60267500D01*
G75*
G02*
X96635200Y-60217500I50000J0D01*
G01*
X98335200Y-60217500D01*
G75*
G02*
X98385200Y-60267500I0J-50000D01*
G01*
X98385200Y-61967500D01*
G75*
G02*
X98335200Y-62017500I-50000J0D01*
G01*
X96635200Y-62017500D01*
G75*
G02*
X96585200Y-61967500I0J50000D01*
G01*
G37*
X112725200Y-63657500D03*
X97485200Y-63657500D03*
X112725200Y-66197500D03*
X97485200Y-66197500D03*
X112725200Y-68737500D03*
X97485200Y-68737500D03*
X112725200Y-71277500D03*
X97485200Y-71277500D03*
X112725200Y-73817500D03*
X97485200Y-73817500D03*
X112725200Y-76357500D03*
X97485200Y-76357500D03*
X112725200Y-78897500D03*
X97485200Y-78897500D03*
X112725200Y-81437500D03*
X97485200Y-81437500D03*
X112725200Y-83977500D03*
X97485200Y-83977500D03*
X112725200Y-86517500D03*
X97485200Y-86517500D03*
X112725200Y-89057500D03*
X97485200Y-89057500D03*
X112725200Y-91597500D03*
X97485200Y-91597500D03*
X112725200Y-94137500D03*
X97485200Y-94137500D03*
X112725200Y-96677500D03*
X97485200Y-96677500D03*
X112725200Y-99217500D03*
X97485200Y-99217500D03*
X112725200Y-101757500D03*
X97485200Y-101757500D03*
X112725200Y-104297500D03*
X97485200Y-104297500D03*
X112725200Y-106837500D03*
X97485200Y-106837500D03*
X112725200Y-109377500D03*
X97485200Y-109377500D03*
%TD*%
%TO.C,C4*%
G36*
G01*
X179022110Y-108136000D02*
X181149890Y-108136000D01*
G75*
G02*
X181411000Y-108397110I0J-261110D01*
G01*
X181411000Y-110224890D01*
G75*
G02*
X181149890Y-110486000I-261110J0D01*
G01*
X179022110Y-110486000D01*
G75*
G02*
X178761000Y-110224890I0J261110D01*
G01*
X178761000Y-108397110D01*
G75*
G02*
X179022110Y-108136000I261110J0D01*
G01*
G37*
G36*
G01*
X179022110Y-101736000D02*
X181149890Y-101736000D01*
G75*
G02*
X181411000Y-101997110I0J-261110D01*
G01*
X181411000Y-103824890D01*
G75*
G02*
X181149890Y-104086000I-261110J0D01*
G01*
X179022110Y-104086000D01*
G75*
G02*
X178761000Y-103824890I0J261110D01*
G01*
X178761000Y-101997110D01*
G75*
G02*
X179022110Y-101736000I261110J0D01*
G01*
G37*
%TD*%
%TO.C,C1*%
G36*
G01*
X120124110Y-108025000D02*
X122251890Y-108025000D01*
G75*
G02*
X122513000Y-108286110I0J-261110D01*
G01*
X122513000Y-110113890D01*
G75*
G02*
X122251890Y-110375000I-261110J0D01*
G01*
X120124110Y-110375000D01*
G75*
G02*
X119863000Y-110113890I0J261110D01*
G01*
X119863000Y-108286110D01*
G75*
G02*
X120124110Y-108025000I261110J0D01*
G01*
G37*
G36*
G01*
X120124110Y-101625000D02*
X122251890Y-101625000D01*
G75*
G02*
X122513000Y-101886110I0J-261110D01*
G01*
X122513000Y-103713890D01*
G75*
G02*
X122251890Y-103975000I-261110J0D01*
G01*
X120124110Y-103975000D01*
G75*
G02*
X119863000Y-103713890I0J261110D01*
G01*
X119863000Y-101886110D01*
G75*
G02*
X120124110Y-101625000I261110J0D01*
G01*
G37*
%TD*%
%TO.C,F1*%
G36*
G01*
X172797871Y-55408300D02*
X174166129Y-55408300D01*
G75*
G02*
X174432000Y-55674171I0J-265871D01*
G01*
X174432000Y-56817429D01*
G75*
G02*
X174166129Y-57083300I-265871J0D01*
G01*
X172797871Y-57083300D01*
G75*
G02*
X172532000Y-56817429I0J265871D01*
G01*
X172532000Y-55674171D01*
G75*
G02*
X172797871Y-55408300I265871J0D01*
G01*
G37*
G36*
G01*
X172798325Y-51233300D02*
X174165675Y-51233300D01*
G75*
G02*
X174432000Y-51499625I0J-266325D01*
G01*
X174432000Y-52641975D01*
G75*
G02*
X174165675Y-52908300I-266325J0D01*
G01*
X172798325Y-52908300D01*
G75*
G02*
X172532000Y-52641975I0J266325D01*
G01*
X172532000Y-51499625D01*
G75*
G02*
X172798325Y-51233300I266325J0D01*
G01*
G37*
%TD*%
D11*
%TO.C,RN4*%
X161889000Y-51810900D03*
X159349000Y-51810900D03*
X156809000Y-51810900D03*
X154269000Y-51810900D03*
X151729000Y-51810900D03*
X149189000Y-51810900D03*
X146649000Y-51810900D03*
X144109000Y-51810900D03*
X141569000Y-51810900D03*
G36*
G01*
X138179000Y-52610900D02*
X138179000Y-51010900D01*
G75*
G02*
X138229000Y-50960900I50000J0D01*
G01*
X139829000Y-50960900D01*
G75*
G02*
X139879000Y-51010900I0J-50000D01*
G01*
X139879000Y-52610900D01*
G75*
G02*
X139829000Y-52660900I-50000J0D01*
G01*
X138229000Y-52660900D01*
G75*
G02*
X138179000Y-52610900I0J50000D01*
G01*
G37*
%TD*%
%TO.C,RN3*%
X121000500Y-51191200D03*
X118460500Y-51191200D03*
X115920500Y-51191200D03*
X113380500Y-51191200D03*
X110840500Y-51191200D03*
X108300500Y-51191200D03*
X105760500Y-51191200D03*
X103220500Y-51191200D03*
X100680500Y-51191200D03*
G36*
G01*
X97290500Y-51991200D02*
X97290500Y-50391200D01*
G75*
G02*
X97340500Y-50341200I50000J0D01*
G01*
X98940500Y-50341200D01*
G75*
G02*
X98990500Y-50391200I0J-50000D01*
G01*
X98990500Y-51991200D01*
G75*
G02*
X98940500Y-52041200I-50000J0D01*
G01*
X97340500Y-52041200D01*
G75*
G02*
X97290500Y-51991200I0J50000D01*
G01*
G37*
%TD*%
%TO.C,RN2*%
X161905000Y-56322000D03*
X159365000Y-56322000D03*
X156825000Y-56322000D03*
X154285000Y-56322000D03*
X151745000Y-56322000D03*
X149205000Y-56322000D03*
X146665000Y-56322000D03*
X144125000Y-56322000D03*
X141585000Y-56322000D03*
G36*
G01*
X138195000Y-57122000D02*
X138195000Y-55522000D01*
G75*
G02*
X138245000Y-55472000I50000J0D01*
G01*
X139845000Y-55472000D01*
G75*
G02*
X139895000Y-55522000I0J-50000D01*
G01*
X139895000Y-57122000D01*
G75*
G02*
X139845000Y-57172000I-50000J0D01*
G01*
X138245000Y-57172000D01*
G75*
G02*
X138195000Y-57122000I0J50000D01*
G01*
G37*
%TD*%
%TO.C,RN1*%
X121000500Y-56118800D03*
X118460500Y-56118800D03*
X115920500Y-56118800D03*
X113380500Y-56118800D03*
X110840500Y-56118800D03*
X108300500Y-56118800D03*
X105760500Y-56118800D03*
X103220500Y-56118800D03*
X100680500Y-56118800D03*
G36*
G01*
X97290500Y-56918800D02*
X97290500Y-55318800D01*
G75*
G02*
X97340500Y-55268800I50000J0D01*
G01*
X98940500Y-55268800D01*
G75*
G02*
X98990500Y-55318800I0J-50000D01*
G01*
X98990500Y-56918800D01*
G75*
G02*
X98940500Y-56968800I-50000J0D01*
G01*
X97340500Y-56968800D01*
G75*
G02*
X97290500Y-56918800I0J50000D01*
G01*
G37*
%TD*%
%TO.C,J5*%
G36*
G01*
X182383000Y-50340400D02*
X183733000Y-50340400D01*
G75*
G02*
X183783000Y-50390400I0J-50000D01*
G01*
X183783000Y-52290400D01*
G75*
G02*
X183733000Y-52340400I-50000J0D01*
G01*
X182383000Y-52340400D01*
G75*
G02*
X182333000Y-52290400I0J50000D01*
G01*
X182333000Y-50390400D01*
G75*
G02*
X182383000Y-50340400I50000J0D01*
G01*
G37*
G36*
G01*
X182383000Y-44370400D02*
X183733000Y-44370400D01*
G75*
G02*
X183783000Y-44420400I0J-50000D01*
G01*
X183783000Y-46320400D01*
G75*
G02*
X183733000Y-46370400I-50000J0D01*
G01*
X182383000Y-46370400D01*
G75*
G02*
X182333000Y-46320400I0J50000D01*
G01*
X182333000Y-44420400D01*
G75*
G02*
X182383000Y-44370400I50000J0D01*
G01*
G37*
G36*
G01*
X187233000Y-41220400D02*
X188233000Y-41220400D01*
G75*
G02*
X188283000Y-41270400I0J-50000D01*
G01*
X188283000Y-42470400D01*
G75*
G02*
X188233000Y-42520400I-50000J0D01*
G01*
X187233000Y-42520400D01*
G75*
G02*
X187183000Y-42470400I0J50000D01*
G01*
X187183000Y-41270400D01*
G75*
G02*
X187233000Y-41220400I50000J0D01*
G01*
G37*
G36*
G01*
X183533000Y-41220400D02*
X184533000Y-41220400D01*
G75*
G02*
X184583000Y-41270400I0J-50000D01*
G01*
X184583000Y-42470400D01*
G75*
G02*
X184533000Y-42520400I-50000J0D01*
G01*
X183533000Y-42520400D01*
G75*
G02*
X183483000Y-42470400I0J50000D01*
G01*
X183483000Y-41270400D01*
G75*
G02*
X183533000Y-41220400I50000J0D01*
G01*
G37*
G36*
G01*
X193083000Y-41220400D02*
X194433000Y-41220400D01*
G75*
G02*
X194483000Y-41270400I0J-50000D01*
G01*
X194483000Y-42820400D01*
G75*
G02*
X194433000Y-42870400I-50000J0D01*
G01*
X193083000Y-42870400D01*
G75*
G02*
X193033000Y-42820400I0J50000D01*
G01*
X193033000Y-41270400D01*
G75*
G02*
X193083000Y-41220400I50000J0D01*
G01*
G37*
G36*
G01*
X192633000Y-52730400D02*
X194433000Y-52730400D01*
G75*
G02*
X194483000Y-52780400I0J-50000D01*
G01*
X194483000Y-53950400D01*
G75*
G02*
X194433000Y-54000400I-50000J0D01*
G01*
X192633000Y-54000400D01*
G75*
G02*
X192583000Y-53950400I0J50000D01*
G01*
X192583000Y-52780400D01*
G75*
G02*
X192633000Y-52730400I50000J0D01*
G01*
G37*
G36*
G01*
X193333000Y-50630400D02*
X194433000Y-50630400D01*
G75*
G02*
X194483000Y-50680400I0J-50000D01*
G01*
X194483000Y-51530400D01*
G75*
G02*
X194433000Y-51580400I-50000J0D01*
G01*
X193333000Y-51580400D01*
G75*
G02*
X193283000Y-51530400I0J50000D01*
G01*
X193283000Y-50680400D01*
G75*
G02*
X193333000Y-50630400I50000J0D01*
G01*
G37*
G36*
G01*
X193333000Y-49530400D02*
X194433000Y-49530400D01*
G75*
G02*
X194483000Y-49580400I0J-50000D01*
G01*
X194483000Y-50430400D01*
G75*
G02*
X194433000Y-50480400I-50000J0D01*
G01*
X193333000Y-50480400D01*
G75*
G02*
X193283000Y-50430400I0J50000D01*
G01*
X193283000Y-49580400D01*
G75*
G02*
X193333000Y-49530400I50000J0D01*
G01*
G37*
G36*
G01*
X193333000Y-48430400D02*
X194433000Y-48430400D01*
G75*
G02*
X194483000Y-48480400I0J-50000D01*
G01*
X194483000Y-49330400D01*
G75*
G02*
X194433000Y-49380400I-50000J0D01*
G01*
X193333000Y-49380400D01*
G75*
G02*
X193283000Y-49330400I0J50000D01*
G01*
X193283000Y-48480400D01*
G75*
G02*
X193333000Y-48430400I50000J0D01*
G01*
G37*
G36*
G01*
X193333000Y-47330400D02*
X194433000Y-47330400D01*
G75*
G02*
X194483000Y-47380400I0J-50000D01*
G01*
X194483000Y-48230400D01*
G75*
G02*
X194433000Y-48280400I-50000J0D01*
G01*
X193333000Y-48280400D01*
G75*
G02*
X193283000Y-48230400I0J50000D01*
G01*
X193283000Y-47380400D01*
G75*
G02*
X193333000Y-47330400I50000J0D01*
G01*
G37*
G36*
G01*
X193333000Y-46230400D02*
X194433000Y-46230400D01*
G75*
G02*
X194483000Y-46280400I0J-50000D01*
G01*
X194483000Y-47130400D01*
G75*
G02*
X194433000Y-47180400I-50000J0D01*
G01*
X193333000Y-47180400D01*
G75*
G02*
X193283000Y-47130400I0J50000D01*
G01*
X193283000Y-46280400D01*
G75*
G02*
X193333000Y-46230400I50000J0D01*
G01*
G37*
G36*
G01*
X193333000Y-45130400D02*
X194433000Y-45130400D01*
G75*
G02*
X194483000Y-45180400I0J-50000D01*
G01*
X194483000Y-46030400D01*
G75*
G02*
X194433000Y-46080400I-50000J0D01*
G01*
X193333000Y-46080400D01*
G75*
G02*
X193283000Y-46030400I0J50000D01*
G01*
X193283000Y-45180400D01*
G75*
G02*
X193333000Y-45130400I50000J0D01*
G01*
G37*
G36*
G01*
X193333000Y-51730400D02*
X194433000Y-51730400D01*
G75*
G02*
X194483000Y-51780400I0J-50000D01*
G01*
X194483000Y-52530400D01*
G75*
G02*
X194433000Y-52580400I-50000J0D01*
G01*
X193333000Y-52580400D01*
G75*
G02*
X193283000Y-52530400I0J50000D01*
G01*
X193283000Y-51780400D01*
G75*
G02*
X193333000Y-51730400I50000J0D01*
G01*
G37*
G36*
G01*
X193333000Y-44030400D02*
X194433000Y-44030400D01*
G75*
G02*
X194483000Y-44080400I0J-50000D01*
G01*
X194483000Y-44930400D01*
G75*
G02*
X194433000Y-44980400I-50000J0D01*
G01*
X193333000Y-44980400D01*
G75*
G02*
X193283000Y-44930400I0J50000D01*
G01*
X193283000Y-44080400D01*
G75*
G02*
X193333000Y-44030400I50000J0D01*
G01*
G37*
%TD*%
D12*
%TO.C,U3*%
X135174000Y-64704000D03*
X119934000Y-97724000D03*
X135174000Y-67244000D03*
X119934000Y-95184000D03*
X135174000Y-69784000D03*
X119934000Y-92644000D03*
X135174000Y-72324000D03*
X119934000Y-90104000D03*
X135174000Y-74864000D03*
X119934000Y-87564000D03*
X135174000Y-77404000D03*
X119934000Y-85024000D03*
X135174000Y-79944000D03*
X119934000Y-82484000D03*
X135174000Y-82484000D03*
X119934000Y-79944000D03*
X135174000Y-85024000D03*
X119934000Y-77404000D03*
X135174000Y-87564000D03*
X119934000Y-74864000D03*
X135174000Y-90104000D03*
X119934000Y-72324000D03*
X135174000Y-92644000D03*
X119934000Y-69784000D03*
X135174000Y-95184000D03*
X119934000Y-67244000D03*
X135174000Y-97724000D03*
G36*
G01*
X118684000Y-65504000D02*
X118684000Y-63904000D01*
G75*
G02*
X118734000Y-63854000I50000J0D01*
G01*
X121134000Y-63854000D01*
G75*
G02*
X121184000Y-63904000I0J-50000D01*
G01*
X121184000Y-65504000D01*
G75*
G02*
X121134000Y-65554000I-50000J0D01*
G01*
X118734000Y-65554000D01*
G75*
G02*
X118684000Y-65504000I0J50000D01*
G01*
G37*
%TD*%
D13*
%TO.C,J2*%
X188946000Y-61502700D03*
X188946000Y-108602700D03*
D14*
X191486000Y-100287700D03*
X191486000Y-97517700D03*
X191486000Y-94747700D03*
X191486000Y-91977700D03*
X191486000Y-89207700D03*
X191486000Y-86437700D03*
X191486000Y-83667700D03*
X191486000Y-80897700D03*
X191486000Y-78127700D03*
X191486000Y-75357700D03*
X191486000Y-72587700D03*
X191486000Y-69817700D03*
X188646000Y-101672700D03*
X188646000Y-98902700D03*
X188646000Y-96132700D03*
X188646000Y-93362700D03*
X188646000Y-90592700D03*
X188646000Y-87822700D03*
X188646000Y-85052700D03*
X188646000Y-82282700D03*
X188646000Y-79512700D03*
X188646000Y-76742700D03*
X188646000Y-73972700D03*
X188646000Y-71202700D03*
G36*
G01*
X189446000Y-69282700D02*
X187846000Y-69282700D01*
G75*
G02*
X187796000Y-69232700I0J50000D01*
G01*
X187796000Y-67632700D01*
G75*
G02*
X187846000Y-67582700I50000J0D01*
G01*
X189446000Y-67582700D01*
G75*
G02*
X189496000Y-67632700I0J-50000D01*
G01*
X189496000Y-69232700D01*
G75*
G02*
X189446000Y-69282700I-50000J0D01*
G01*
G37*
%TD*%
%TO.C,J1*%
G36*
G01*
X170342000Y-123830000D02*
X170342000Y-116210000D01*
G75*
G02*
X170392000Y-116160000I50000J0D01*
G01*
X172172000Y-116160000D01*
G75*
G02*
X172222000Y-116210000I0J-50000D01*
G01*
X172222000Y-123830000D01*
G75*
G02*
X172172000Y-123880000I-50000J0D01*
G01*
X170392000Y-123880000D01*
G75*
G02*
X170342000Y-123830000I0J50000D01*
G01*
G37*
G36*
G01*
X167802000Y-123830000D02*
X167802000Y-116210000D01*
G75*
G02*
X167852000Y-116160000I50000J0D01*
G01*
X169632000Y-116160000D01*
G75*
G02*
X169682000Y-116210000I0J-50000D01*
G01*
X169682000Y-123830000D01*
G75*
G02*
X169632000Y-123880000I-50000J0D01*
G01*
X167852000Y-123880000D01*
G75*
G02*
X167802000Y-123830000I0J50000D01*
G01*
G37*
G36*
G01*
X165262000Y-123830000D02*
X165262000Y-116210000D01*
G75*
G02*
X165312000Y-116160000I50000J0D01*
G01*
X167092000Y-116160000D01*
G75*
G02*
X167142000Y-116210000I0J-50000D01*
G01*
X167142000Y-123830000D01*
G75*
G02*
X167092000Y-123880000I-50000J0D01*
G01*
X165312000Y-123880000D01*
G75*
G02*
X165262000Y-123830000I0J50000D01*
G01*
G37*
G36*
G01*
X162722000Y-123830000D02*
X162722000Y-116210000D01*
G75*
G02*
X162772000Y-116160000I50000J0D01*
G01*
X164552000Y-116160000D01*
G75*
G02*
X164602000Y-116210000I0J-50000D01*
G01*
X164602000Y-123830000D01*
G75*
G02*
X164552000Y-123880000I-50000J0D01*
G01*
X162772000Y-123880000D01*
G75*
G02*
X162722000Y-123830000I0J50000D01*
G01*
G37*
G36*
G01*
X160182000Y-123830000D02*
X160182000Y-116210000D01*
G75*
G02*
X160232000Y-116160000I50000J0D01*
G01*
X162012000Y-116160000D01*
G75*
G02*
X162062000Y-116210000I0J-50000D01*
G01*
X162062000Y-123830000D01*
G75*
G02*
X162012000Y-123880000I-50000J0D01*
G01*
X160232000Y-123880000D01*
G75*
G02*
X160182000Y-123830000I0J50000D01*
G01*
G37*
G36*
G01*
X157642000Y-123830000D02*
X157642000Y-116210000D01*
G75*
G02*
X157692000Y-116160000I50000J0D01*
G01*
X159472000Y-116160000D01*
G75*
G02*
X159522000Y-116210000I0J-50000D01*
G01*
X159522000Y-123830000D01*
G75*
G02*
X159472000Y-123880000I-50000J0D01*
G01*
X157692000Y-123880000D01*
G75*
G02*
X157642000Y-123830000I0J50000D01*
G01*
G37*
G36*
G01*
X155102000Y-123830000D02*
X155102000Y-116210000D01*
G75*
G02*
X155152000Y-116160000I50000J0D01*
G01*
X156932000Y-116160000D01*
G75*
G02*
X156982000Y-116210000I0J-50000D01*
G01*
X156982000Y-123830000D01*
G75*
G02*
X156932000Y-123880000I-50000J0D01*
G01*
X155152000Y-123880000D01*
G75*
G02*
X155102000Y-123830000I0J50000D01*
G01*
G37*
G36*
G01*
X152562000Y-123830000D02*
X152562000Y-116210000D01*
G75*
G02*
X152612000Y-116160000I50000J0D01*
G01*
X154392000Y-116160000D01*
G75*
G02*
X154442000Y-116210000I0J-50000D01*
G01*
X154442000Y-123830000D01*
G75*
G02*
X154392000Y-123880000I-50000J0D01*
G01*
X152612000Y-123880000D01*
G75*
G02*
X152562000Y-123830000I0J50000D01*
G01*
G37*
G36*
G01*
X150022000Y-123830000D02*
X150022000Y-116210000D01*
G75*
G02*
X150072000Y-116160000I50000J0D01*
G01*
X151852000Y-116160000D01*
G75*
G02*
X151902000Y-116210000I0J-50000D01*
G01*
X151902000Y-123830000D01*
G75*
G02*
X151852000Y-123880000I-50000J0D01*
G01*
X150072000Y-123880000D01*
G75*
G02*
X150022000Y-123830000I0J50000D01*
G01*
G37*
G36*
G01*
X147482000Y-123830000D02*
X147482000Y-116210000D01*
G75*
G02*
X147532000Y-116160000I50000J0D01*
G01*
X149312000Y-116160000D01*
G75*
G02*
X149362000Y-116210000I0J-50000D01*
G01*
X149362000Y-123830000D01*
G75*
G02*
X149312000Y-123880000I-50000J0D01*
G01*
X147532000Y-123880000D01*
G75*
G02*
X147482000Y-123830000I0J50000D01*
G01*
G37*
G36*
G01*
X144942000Y-123830000D02*
X144942000Y-116210000D01*
G75*
G02*
X144992000Y-116160000I50000J0D01*
G01*
X146772000Y-116160000D01*
G75*
G02*
X146822000Y-116210000I0J-50000D01*
G01*
X146822000Y-123830000D01*
G75*
G02*
X146772000Y-123880000I-50000J0D01*
G01*
X144992000Y-123880000D01*
G75*
G02*
X144942000Y-123830000I0J50000D01*
G01*
G37*
G36*
G01*
X142402000Y-123830000D02*
X142402000Y-116210000D01*
G75*
G02*
X142452000Y-116160000I50000J0D01*
G01*
X144232000Y-116160000D01*
G75*
G02*
X144282000Y-116210000I0J-50000D01*
G01*
X144282000Y-123830000D01*
G75*
G02*
X144232000Y-123880000I-50000J0D01*
G01*
X142452000Y-123880000D01*
G75*
G02*
X142402000Y-123830000I0J50000D01*
G01*
G37*
G36*
G01*
X139862000Y-123830000D02*
X139862000Y-116210000D01*
G75*
G02*
X139912000Y-116160000I50000J0D01*
G01*
X141692000Y-116160000D01*
G75*
G02*
X141742000Y-116210000I0J-50000D01*
G01*
X141742000Y-123830000D01*
G75*
G02*
X141692000Y-123880000I-50000J0D01*
G01*
X139912000Y-123880000D01*
G75*
G02*
X139862000Y-123830000I0J50000D01*
G01*
G37*
G36*
G01*
X137322000Y-123830000D02*
X137322000Y-116210000D01*
G75*
G02*
X137372000Y-116160000I50000J0D01*
G01*
X139152000Y-116160000D01*
G75*
G02*
X139202000Y-116210000I0J-50000D01*
G01*
X139202000Y-123830000D01*
G75*
G02*
X139152000Y-123880000I-50000J0D01*
G01*
X137372000Y-123880000D01*
G75*
G02*
X137322000Y-123830000I0J50000D01*
G01*
G37*
G36*
G01*
X134782000Y-123830000D02*
X134782000Y-116210000D01*
G75*
G02*
X134832000Y-116160000I50000J0D01*
G01*
X136612000Y-116160000D01*
G75*
G02*
X136662000Y-116210000I0J-50000D01*
G01*
X136662000Y-123830000D01*
G75*
G02*
X136612000Y-123880000I-50000J0D01*
G01*
X134832000Y-123880000D01*
G75*
G02*
X134782000Y-123830000I0J50000D01*
G01*
G37*
G36*
G01*
X132242000Y-123830000D02*
X132242000Y-116210000D01*
G75*
G02*
X132292000Y-116160000I50000J0D01*
G01*
X134072000Y-116160000D01*
G75*
G02*
X134122000Y-116210000I0J-50000D01*
G01*
X134122000Y-123830000D01*
G75*
G02*
X134072000Y-123880000I-50000J0D01*
G01*
X132292000Y-123880000D01*
G75*
G02*
X132242000Y-123830000I0J50000D01*
G01*
G37*
G36*
G01*
X129702000Y-123830000D02*
X129702000Y-116210000D01*
G75*
G02*
X129752000Y-116160000I50000J0D01*
G01*
X131532000Y-116160000D01*
G75*
G02*
X131582000Y-116210000I0J-50000D01*
G01*
X131582000Y-123830000D01*
G75*
G02*
X131532000Y-123880000I-50000J0D01*
G01*
X129752000Y-123880000D01*
G75*
G02*
X129702000Y-123830000I0J50000D01*
G01*
G37*
G36*
G01*
X127162000Y-123830000D02*
X127162000Y-116210000D01*
G75*
G02*
X127212000Y-116160000I50000J0D01*
G01*
X128992000Y-116160000D01*
G75*
G02*
X129042000Y-116210000I0J-50000D01*
G01*
X129042000Y-123830000D01*
G75*
G02*
X128992000Y-123880000I-50000J0D01*
G01*
X127212000Y-123880000D01*
G75*
G02*
X127162000Y-123830000I0J50000D01*
G01*
G37*
G36*
G01*
X124622000Y-123830000D02*
X124622000Y-116210000D01*
G75*
G02*
X124672000Y-116160000I50000J0D01*
G01*
X126452000Y-116160000D01*
G75*
G02*
X126502000Y-116210000I0J-50000D01*
G01*
X126502000Y-123830000D01*
G75*
G02*
X126452000Y-123880000I-50000J0D01*
G01*
X124672000Y-123880000D01*
G75*
G02*
X124622000Y-123830000I0J50000D01*
G01*
G37*
G36*
G01*
X122082000Y-123830000D02*
X122082000Y-116210000D01*
G75*
G02*
X122132000Y-116160000I50000J0D01*
G01*
X123912000Y-116160000D01*
G75*
G02*
X123962000Y-116210000I0J-50000D01*
G01*
X123962000Y-123830000D01*
G75*
G02*
X123912000Y-123880000I-50000J0D01*
G01*
X122132000Y-123880000D01*
G75*
G02*
X122082000Y-123830000I0J50000D01*
G01*
G37*
G36*
G01*
X119542000Y-123830000D02*
X119542000Y-116210000D01*
G75*
G02*
X119592000Y-116160000I50000J0D01*
G01*
X121372000Y-116160000D01*
G75*
G02*
X121422000Y-116210000I0J-50000D01*
G01*
X121422000Y-123830000D01*
G75*
G02*
X121372000Y-123880000I-50000J0D01*
G01*
X119592000Y-123880000D01*
G75*
G02*
X119542000Y-123830000I0J50000D01*
G01*
G37*
G36*
G01*
X117002000Y-123830000D02*
X117002000Y-116210000D01*
G75*
G02*
X117052000Y-116160000I50000J0D01*
G01*
X118832000Y-116160000D01*
G75*
G02*
X118882000Y-116210000I0J-50000D01*
G01*
X118882000Y-123830000D01*
G75*
G02*
X118832000Y-123880000I-50000J0D01*
G01*
X117052000Y-123880000D01*
G75*
G02*
X117002000Y-123830000I0J50000D01*
G01*
G37*
G36*
G01*
X114462000Y-123830000D02*
X114462000Y-116210000D01*
G75*
G02*
X114512000Y-116160000I50000J0D01*
G01*
X116292000Y-116160000D01*
G75*
G02*
X116342000Y-116210000I0J-50000D01*
G01*
X116342000Y-123830000D01*
G75*
G02*
X116292000Y-123880000I-50000J0D01*
G01*
X114512000Y-123880000D01*
G75*
G02*
X114462000Y-123830000I0J50000D01*
G01*
G37*
G36*
G01*
X111922000Y-123830000D02*
X111922000Y-116210000D01*
G75*
G02*
X111972000Y-116160000I50000J0D01*
G01*
X113752000Y-116160000D01*
G75*
G02*
X113802000Y-116210000I0J-50000D01*
G01*
X113802000Y-123830000D01*
G75*
G02*
X113752000Y-123880000I-50000J0D01*
G01*
X111972000Y-123880000D01*
G75*
G02*
X111922000Y-123830000I0J50000D01*
G01*
G37*
G36*
G01*
X109382000Y-123830000D02*
X109382000Y-116210000D01*
G75*
G02*
X109432000Y-116160000I50000J0D01*
G01*
X111212000Y-116160000D01*
G75*
G02*
X111262000Y-116210000I0J-50000D01*
G01*
X111262000Y-123830000D01*
G75*
G02*
X111212000Y-123880000I-50000J0D01*
G01*
X109432000Y-123880000D01*
G75*
G02*
X109382000Y-123830000I0J50000D01*
G01*
G37*
G36*
G01*
X106842000Y-123830000D02*
X106842000Y-116210000D01*
G75*
G02*
X106892000Y-116160000I50000J0D01*
G01*
X108672000Y-116160000D01*
G75*
G02*
X108722000Y-116210000I0J-50000D01*
G01*
X108722000Y-123830000D01*
G75*
G02*
X108672000Y-123880000I-50000J0D01*
G01*
X106892000Y-123880000D01*
G75*
G02*
X106842000Y-123830000I0J50000D01*
G01*
G37*
G36*
G01*
X104302000Y-123830000D02*
X104302000Y-116210000D01*
G75*
G02*
X104352000Y-116160000I50000J0D01*
G01*
X106132000Y-116160000D01*
G75*
G02*
X106182000Y-116210000I0J-50000D01*
G01*
X106182000Y-123830000D01*
G75*
G02*
X106132000Y-123880000I-50000J0D01*
G01*
X104352000Y-123880000D01*
G75*
G02*
X104302000Y-123830000I0J50000D01*
G01*
G37*
G36*
G01*
X101762000Y-123830000D02*
X101762000Y-116210000D01*
G75*
G02*
X101812000Y-116160000I50000J0D01*
G01*
X103592000Y-116160000D01*
G75*
G02*
X103642000Y-116210000I0J-50000D01*
G01*
X103642000Y-123830000D01*
G75*
G02*
X103592000Y-123880000I-50000J0D01*
G01*
X101812000Y-123880000D01*
G75*
G02*
X101762000Y-123830000I0J50000D01*
G01*
G37*
G36*
G01*
X99222000Y-123830000D02*
X99222000Y-116210000D01*
G75*
G02*
X99272000Y-116160000I50000J0D01*
G01*
X101052000Y-116160000D01*
G75*
G02*
X101102000Y-116210000I0J-50000D01*
G01*
X101102000Y-123830000D01*
G75*
G02*
X101052000Y-123880000I-50000J0D01*
G01*
X99272000Y-123880000D01*
G75*
G02*
X99222000Y-123830000I0J50000D01*
G01*
G37*
G36*
G01*
X96682000Y-123830000D02*
X96682000Y-116210000D01*
G75*
G02*
X96732000Y-116160000I50000J0D01*
G01*
X98512000Y-116160000D01*
G75*
G02*
X98562000Y-116210000I0J-50000D01*
G01*
X98562000Y-123830000D01*
G75*
G02*
X98512000Y-123880000I-50000J0D01*
G01*
X96732000Y-123880000D01*
G75*
G02*
X96682000Y-123830000I0J50000D01*
G01*
G37*
G36*
G01*
X94142000Y-123830000D02*
X94142000Y-116210000D01*
G75*
G02*
X94192000Y-116160000I50000J0D01*
G01*
X95972000Y-116160000D01*
G75*
G02*
X96022000Y-116210000I0J-50000D01*
G01*
X96022000Y-123830000D01*
G75*
G02*
X95972000Y-123880000I-50000J0D01*
G01*
X94192000Y-123880000D01*
G75*
G02*
X94142000Y-123830000I0J50000D01*
G01*
G37*
%TD*%
D15*
%TO.C,JP3*%
X174894000Y-43860700D03*
G36*
G01*
X175794000Y-45550700D02*
X175794000Y-47250700D01*
G75*
G02*
X175744000Y-47300700I-50000J0D01*
G01*
X174044000Y-47300700D01*
G75*
G02*
X173994000Y-47250700I0J50000D01*
G01*
X173994000Y-45550700D01*
G75*
G02*
X174044000Y-45500700I50000J0D01*
G01*
X175744000Y-45500700D01*
G75*
G02*
X175794000Y-45550700I0J-50000D01*
G01*
G37*
%TD*%
%TO.C,JP2*%
X133843000Y-56682600D03*
G36*
G01*
X132943000Y-54992600D02*
X132943000Y-53292600D01*
G75*
G02*
X132993000Y-53242600I50000J0D01*
G01*
X134693000Y-53242600D01*
G75*
G02*
X134743000Y-53292600I0J-50000D01*
G01*
X134743000Y-54992600D01*
G75*
G02*
X134693000Y-55042600I-50000J0D01*
G01*
X132993000Y-55042600D01*
G75*
G02*
X132943000Y-54992600I0J50000D01*
G01*
G37*
%TD*%
%TO.C,JP1*%
X128549000Y-56682600D03*
G36*
G01*
X127649000Y-54992600D02*
X127649000Y-53292600D01*
G75*
G02*
X127699000Y-53242600I50000J0D01*
G01*
X129399000Y-53242600D01*
G75*
G02*
X129449000Y-53292600I0J-50000D01*
G01*
X129449000Y-54992600D01*
G75*
G02*
X129399000Y-55042600I-50000J0D01*
G01*
X127699000Y-55042600D01*
G75*
G02*
X127649000Y-54992600I0J50000D01*
G01*
G37*
%TD*%
%TO.C,J4*%
X155113000Y-107930000D03*
X152573000Y-107930000D03*
X155113000Y-105390000D03*
X152573000Y-105390000D03*
X155113000Y-102850000D03*
G36*
G01*
X151673000Y-103700000D02*
X151673000Y-102000000D01*
G75*
G02*
X151723000Y-101950000I50000J0D01*
G01*
X153423000Y-101950000D01*
G75*
G02*
X153473000Y-102000000I0J-50000D01*
G01*
X153473000Y-103700000D01*
G75*
G02*
X153423000Y-103750000I-50000J0D01*
G01*
X151723000Y-103750000D01*
G75*
G02*
X151673000Y-103700000I0J50000D01*
G01*
G37*
%TD*%
%TO.C,J3*%
X144115000Y-107975000D03*
X141575000Y-107975000D03*
X144115000Y-105435000D03*
X141575000Y-105435000D03*
X144115000Y-102895000D03*
G36*
G01*
X140675000Y-103745000D02*
X140675000Y-102045000D01*
G75*
G02*
X140725000Y-101995000I50000J0D01*
G01*
X142425000Y-101995000D01*
G75*
G02*
X142475000Y-102045000I0J-50000D01*
G01*
X142475000Y-103745000D01*
G75*
G02*
X142425000Y-103795000I-50000J0D01*
G01*
X140725000Y-103795000D01*
G75*
G02*
X140675000Y-103745000I0J50000D01*
G01*
G37*
%TD*%
D16*
%TO.C,D1*%
X177490000Y-73807300D03*
G36*
G01*
X175890000Y-59457300D02*
X179090000Y-59457300D01*
G75*
G02*
X179140000Y-59507300I0J-50000D01*
G01*
X179140000Y-62707300D01*
G75*
G02*
X179090000Y-62757300I-50000J0D01*
G01*
X175890000Y-62757300D01*
G75*
G02*
X175840000Y-62707300I0J50000D01*
G01*
X175840000Y-59507300D01*
G75*
G02*
X175890000Y-59457300I50000J0D01*
G01*
G37*
%TD*%
D17*
%TO.C,U4*%
X167208000Y-68610500D03*
X167208000Y-71150500D03*
X167208000Y-73690500D03*
X167208000Y-76230500D03*
X167208000Y-78770500D03*
X167208000Y-81310500D03*
X167208000Y-83850500D03*
X167208000Y-86390500D03*
X164668000Y-66070500D03*
X164668000Y-71150500D03*
X164668000Y-73690500D03*
X164668000Y-76230500D03*
X164668000Y-78770500D03*
X164668000Y-81310500D03*
X164668000Y-83850500D03*
X164668000Y-86390500D03*
X164668000Y-88930500D03*
X164668000Y-91470500D03*
X162128000Y-91470500D03*
X159588000Y-91470500D03*
X157048000Y-91470500D03*
X154508000Y-91470500D03*
X151968000Y-91470500D03*
X149428000Y-91470500D03*
X146888000Y-91470500D03*
X144348000Y-91470500D03*
X167208000Y-88930500D03*
X162128000Y-88930500D03*
X159588000Y-88930500D03*
X157048000Y-88930500D03*
X154508000Y-88930500D03*
X151968000Y-88930500D03*
X149428000Y-88930500D03*
X146888000Y-88930500D03*
X144348000Y-88930500D03*
X141808000Y-88930500D03*
X141808000Y-86390500D03*
X141808000Y-83850500D03*
X141808000Y-81310500D03*
X141808000Y-78770500D03*
X141808000Y-76230500D03*
X141808000Y-73690500D03*
X141808000Y-71150500D03*
X141808000Y-68610500D03*
X144348000Y-86390500D03*
X144348000Y-83850500D03*
X144348000Y-81310500D03*
X144348000Y-78770500D03*
X144348000Y-76230500D03*
X144348000Y-73690500D03*
X144348000Y-71150500D03*
X144348000Y-68610500D03*
X162128000Y-66070500D03*
X159588000Y-66070500D03*
X157048000Y-66070500D03*
X144348000Y-66070500D03*
X146888000Y-66070500D03*
X149428000Y-66070500D03*
X151968000Y-66070500D03*
G36*
G01*
X153746800Y-66781700D02*
X153746800Y-65359300D01*
G75*
G02*
X153796800Y-65309300I50000J0D01*
G01*
X155219200Y-65309300D01*
G75*
G02*
X155269200Y-65359300I0J-50000D01*
G01*
X155269200Y-66781700D01*
G75*
G02*
X155219200Y-66831700I-50000J0D01*
G01*
X153796800Y-66831700D01*
G75*
G02*
X153746800Y-66781700I0J50000D01*
G01*
G37*
X164668000Y-68610500D03*
X162128000Y-68610500D03*
X159588000Y-68610500D03*
X157048000Y-68610500D03*
X146888000Y-68610500D03*
X149428000Y-68610500D03*
X151968000Y-68610500D03*
X154508000Y-68610500D03*
%TD*%
%TO.C,U2*%
G36*
G01*
X173498000Y-111095430D02*
X173498000Y-109096450D01*
G75*
G02*
X173548000Y-109046450I50000J0D01*
G01*
X174056000Y-109046450D01*
G75*
G02*
X174106000Y-109096450I0J-50000D01*
G01*
X174106000Y-111095430D01*
G75*
G02*
X174056000Y-111145430I-50000J0D01*
G01*
X173548000Y-111145430D01*
G75*
G02*
X173498000Y-111095430I0J50000D01*
G01*
G37*
G36*
G01*
X172228000Y-111095430D02*
X172228000Y-109096450D01*
G75*
G02*
X172278000Y-109046450I50000J0D01*
G01*
X172786000Y-109046450D01*
G75*
G02*
X172836000Y-109096450I0J-50000D01*
G01*
X172836000Y-111095430D01*
G75*
G02*
X172786000Y-111145430I-50000J0D01*
G01*
X172278000Y-111145430D01*
G75*
G02*
X172228000Y-111095430I0J50000D01*
G01*
G37*
G36*
G01*
X170958000Y-111095430D02*
X170958000Y-109096450D01*
G75*
G02*
X171008000Y-109046450I50000J0D01*
G01*
X171516000Y-109046450D01*
G75*
G02*
X171566000Y-109096450I0J-50000D01*
G01*
X171566000Y-111095430D01*
G75*
G02*
X171516000Y-111145430I-50000J0D01*
G01*
X171008000Y-111145430D01*
G75*
G02*
X170958000Y-111095430I0J50000D01*
G01*
G37*
G36*
G01*
X169688000Y-111095430D02*
X169688000Y-109096450D01*
G75*
G02*
X169738000Y-109046450I50000J0D01*
G01*
X170246000Y-109046450D01*
G75*
G02*
X170296000Y-109096450I0J-50000D01*
G01*
X170296000Y-111095430D01*
G75*
G02*
X170246000Y-111145430I-50000J0D01*
G01*
X169738000Y-111145430D01*
G75*
G02*
X169688000Y-111095430I0J50000D01*
G01*
G37*
G36*
G01*
X168418000Y-111095430D02*
X168418000Y-109096450D01*
G75*
G02*
X168468000Y-109046450I50000J0D01*
G01*
X168976000Y-109046450D01*
G75*
G02*
X169026000Y-109096450I0J-50000D01*
G01*
X169026000Y-111095430D01*
G75*
G02*
X168976000Y-111145430I-50000J0D01*
G01*
X168468000Y-111145430D01*
G75*
G02*
X168418000Y-111095430I0J50000D01*
G01*
G37*
G36*
G01*
X167148000Y-111095430D02*
X167148000Y-109096450D01*
G75*
G02*
X167198000Y-109046450I50000J0D01*
G01*
X167706000Y-109046450D01*
G75*
G02*
X167756000Y-109096450I0J-50000D01*
G01*
X167756000Y-111095430D01*
G75*
G02*
X167706000Y-111145430I-50000J0D01*
G01*
X167198000Y-111145430D01*
G75*
G02*
X167148000Y-111095430I0J50000D01*
G01*
G37*
G36*
G01*
X165878000Y-111095430D02*
X165878000Y-109096450D01*
G75*
G02*
X165928000Y-109046450I50000J0D01*
G01*
X166436000Y-109046450D01*
G75*
G02*
X166486000Y-109096450I0J-50000D01*
G01*
X166486000Y-111095430D01*
G75*
G02*
X166436000Y-111145430I-50000J0D01*
G01*
X165928000Y-111145430D01*
G75*
G02*
X165878000Y-111095430I0J50000D01*
G01*
G37*
G36*
G01*
X164608000Y-111095430D02*
X164608000Y-109096450D01*
G75*
G02*
X164658000Y-109046450I50000J0D01*
G01*
X165166000Y-109046450D01*
G75*
G02*
X165216000Y-109096450I0J-50000D01*
G01*
X165216000Y-111095430D01*
G75*
G02*
X165166000Y-111145430I-50000J0D01*
G01*
X164658000Y-111145430D01*
G75*
G02*
X164608000Y-111095430I0J50000D01*
G01*
G37*
G36*
G01*
X163338000Y-111095430D02*
X163338000Y-109096450D01*
G75*
G02*
X163388000Y-109046450I50000J0D01*
G01*
X163896000Y-109046450D01*
G75*
G02*
X163946000Y-109096450I0J-50000D01*
G01*
X163946000Y-111095430D01*
G75*
G02*
X163896000Y-111145430I-50000J0D01*
G01*
X163388000Y-111145430D01*
G75*
G02*
X163338000Y-111095430I0J50000D01*
G01*
G37*
G36*
G01*
X162068000Y-111095430D02*
X162068000Y-109096450D01*
G75*
G02*
X162118000Y-109046450I50000J0D01*
G01*
X162626000Y-109046450D01*
G75*
G02*
X162676000Y-109096450I0J-50000D01*
G01*
X162676000Y-111095430D01*
G75*
G02*
X162626000Y-111145430I-50000J0D01*
G01*
X162118000Y-111145430D01*
G75*
G02*
X162068000Y-111095430I0J50000D01*
G01*
G37*
G36*
G01*
X162068000Y-101895550D02*
X162068000Y-99896570D01*
G75*
G02*
X162118000Y-99846570I50000J0D01*
G01*
X162626000Y-99846570D01*
G75*
G02*
X162676000Y-99896570I0J-50000D01*
G01*
X162676000Y-101895550D01*
G75*
G02*
X162626000Y-101945550I-50000J0D01*
G01*
X162118000Y-101945550D01*
G75*
G02*
X162068000Y-101895550I0J50000D01*
G01*
G37*
G36*
G01*
X163338000Y-101895550D02*
X163338000Y-99896570D01*
G75*
G02*
X163388000Y-99846570I50000J0D01*
G01*
X163896000Y-99846570D01*
G75*
G02*
X163946000Y-99896570I0J-50000D01*
G01*
X163946000Y-101895550D01*
G75*
G02*
X163896000Y-101945550I-50000J0D01*
G01*
X163388000Y-101945550D01*
G75*
G02*
X163338000Y-101895550I0J50000D01*
G01*
G37*
G36*
G01*
X164608000Y-101895550D02*
X164608000Y-99896570D01*
G75*
G02*
X164658000Y-99846570I50000J0D01*
G01*
X165166000Y-99846570D01*
G75*
G02*
X165216000Y-99896570I0J-50000D01*
G01*
X165216000Y-101895550D01*
G75*
G02*
X165166000Y-101945550I-50000J0D01*
G01*
X164658000Y-101945550D01*
G75*
G02*
X164608000Y-101895550I0J50000D01*
G01*
G37*
G36*
G01*
X165878000Y-101895550D02*
X165878000Y-99896570D01*
G75*
G02*
X165928000Y-99846570I50000J0D01*
G01*
X166436000Y-99846570D01*
G75*
G02*
X166486000Y-99896570I0J-50000D01*
G01*
X166486000Y-101895550D01*
G75*
G02*
X166436000Y-101945550I-50000J0D01*
G01*
X165928000Y-101945550D01*
G75*
G02*
X165878000Y-101895550I0J50000D01*
G01*
G37*
G36*
G01*
X167148000Y-101895550D02*
X167148000Y-99896570D01*
G75*
G02*
X167198000Y-99846570I50000J0D01*
G01*
X167706000Y-99846570D01*
G75*
G02*
X167756000Y-99896570I0J-50000D01*
G01*
X167756000Y-101895550D01*
G75*
G02*
X167706000Y-101945550I-50000J0D01*
G01*
X167198000Y-101945550D01*
G75*
G02*
X167148000Y-101895550I0J50000D01*
G01*
G37*
G36*
G01*
X168418000Y-101895550D02*
X168418000Y-99896570D01*
G75*
G02*
X168468000Y-99846570I50000J0D01*
G01*
X168976000Y-99846570D01*
G75*
G02*
X169026000Y-99896570I0J-50000D01*
G01*
X169026000Y-101895550D01*
G75*
G02*
X168976000Y-101945550I-50000J0D01*
G01*
X168468000Y-101945550D01*
G75*
G02*
X168418000Y-101895550I0J50000D01*
G01*
G37*
G36*
G01*
X169688000Y-101895550D02*
X169688000Y-99896570D01*
G75*
G02*
X169738000Y-99846570I50000J0D01*
G01*
X170246000Y-99846570D01*
G75*
G02*
X170296000Y-99896570I0J-50000D01*
G01*
X170296000Y-101895550D01*
G75*
G02*
X170246000Y-101945550I-50000J0D01*
G01*
X169738000Y-101945550D01*
G75*
G02*
X169688000Y-101895550I0J50000D01*
G01*
G37*
G36*
G01*
X170958000Y-101895550D02*
X170958000Y-99896570D01*
G75*
G02*
X171008000Y-99846570I50000J0D01*
G01*
X171516000Y-99846570D01*
G75*
G02*
X171566000Y-99896570I0J-50000D01*
G01*
X171566000Y-101895550D01*
G75*
G02*
X171516000Y-101945550I-50000J0D01*
G01*
X171008000Y-101945550D01*
G75*
G02*
X170958000Y-101895550I0J50000D01*
G01*
G37*
G36*
G01*
X172228000Y-101895550D02*
X172228000Y-99896570D01*
G75*
G02*
X172278000Y-99846570I50000J0D01*
G01*
X172786000Y-99846570D01*
G75*
G02*
X172836000Y-99896570I0J-50000D01*
G01*
X172836000Y-101895550D01*
G75*
G02*
X172786000Y-101945550I-50000J0D01*
G01*
X172278000Y-101945550D01*
G75*
G02*
X172228000Y-101895550I0J50000D01*
G01*
G37*
G36*
G01*
X173498000Y-101895550D02*
X173498000Y-99896570D01*
G75*
G02*
X173548000Y-99846570I50000J0D01*
G01*
X174056000Y-99846570D01*
G75*
G02*
X174106000Y-99896570I0J-50000D01*
G01*
X174106000Y-101895550D01*
G75*
G02*
X174056000Y-101945550I-50000J0D01*
G01*
X173548000Y-101945550D01*
G75*
G02*
X173498000Y-101895550I0J50000D01*
G01*
G37*
%TD*%
D10*
%TO.C,J6*%
X161915000Y-41996400D03*
X159375000Y-41996400D03*
X156835000Y-41996400D03*
X154295000Y-41996400D03*
X151755000Y-41996400D03*
X149215000Y-41996400D03*
X146675000Y-41996400D03*
X144135000Y-41996400D03*
X141595000Y-41996400D03*
X139055000Y-41996400D03*
X136515000Y-41996400D03*
X133975000Y-41996400D03*
X131435000Y-41996400D03*
X128895000Y-41996400D03*
X126355000Y-41996400D03*
X123815000Y-41996400D03*
X121275000Y-41996400D03*
X118735000Y-41996400D03*
X116195000Y-41996400D03*
X113655000Y-41996400D03*
X111115000Y-41996400D03*
X108575000Y-41996400D03*
X106035000Y-41996400D03*
X103495000Y-41996400D03*
X100955000Y-41996400D03*
X161915000Y-44536400D03*
X159375000Y-44536400D03*
X156835000Y-44536400D03*
X154295000Y-44536400D03*
X151755000Y-44536400D03*
X149215000Y-44536400D03*
X146675000Y-44536400D03*
X144135000Y-44536400D03*
X141595000Y-44536400D03*
X139055000Y-44536400D03*
X136515000Y-44536400D03*
X133975000Y-44536400D03*
X131435000Y-44536400D03*
X128895000Y-44536400D03*
X126355000Y-44536400D03*
X123815000Y-44536400D03*
X121275000Y-44536400D03*
X118735000Y-44536400D03*
X116195000Y-44536400D03*
X113655000Y-44536400D03*
X111115000Y-44536400D03*
X108575000Y-44536400D03*
X106035000Y-44536400D03*
X103495000Y-44536400D03*
G36*
G01*
X101590295Y-45436400D02*
X100319705Y-45436400D01*
G75*
G02*
X100055000Y-45171695I0J264705D01*
G01*
X100055000Y-43901105D01*
G75*
G02*
X100319705Y-43636400I264705J0D01*
G01*
X101590295Y-43636400D01*
G75*
G02*
X101855000Y-43901105I0J-264705D01*
G01*
X101855000Y-45171695D01*
G75*
G02*
X101590295Y-45436400I-264705J0D01*
G01*
G37*
%TD*%
D18*
X173929040Y-123499880D02*
X173907403Y-123664230D01*
X173843966Y-123817380D01*
X173743053Y-123948893D01*
X173611540Y-124049806D01*
X173458390Y-124113243D01*
X173294040Y-124134880D01*
X92649040Y-124134880D01*
X92649040Y-117297200D01*
X173929040Y-117297200D01*
X173929040Y-123499880D01*
D19*
G36*
X173929040Y-123499880D02*
G01*
X173907403Y-123664230D01*
X173843966Y-123817380D01*
X173743053Y-123948893D01*
X173611540Y-124049806D01*
X173458390Y-124113243D01*
X173294040Y-124134880D01*
X92649040Y-124134880D01*
X92649040Y-117297200D01*
X173929040Y-117297200D01*
X173929040Y-123499880D01*
G37*
M02*
