%TF.GenerationSoftware,KiCad,Pcbnew,(5.1.10)-1*%
%TF.CreationDate,2021-12-13T18:42:30+00:00*%
%TF.ProjectId,isascsi,69736173-6373-4692-9e6b-696361645f70,rev?*%
%TF.SameCoordinates,Original*%
%TF.FileFunction,Paste,Top*%
%TF.FilePolarity,Positive*%
%FSLAX46Y46*%
G04 Gerber Fmt 4.6, Leading zero omitted, Abs format (unit mm)*
G04 Created by KiCad (PCBNEW (5.1.10)-1) date 2021-12-13 18:42:30*
%MOMM*%
%LPD*%
G01*
G04 APERTURE LIST*
%ADD10R,1.350000X1.900000*%
%ADD11R,1.000000X1.200000*%
%ADD12R,1.350000X1.550000*%
%ADD13R,1.800000X1.170000*%
%ADD14R,1.100000X0.850000*%
%ADD15R,1.100000X0.750000*%
%ADD16R,0.508000X1.998980*%
G04 APERTURE END LIST*
%TO.C,C4*%
G36*
G01*
X179060999Y-108186000D02*
X181111001Y-108186000D01*
G75*
G02*
X181361000Y-108435999I0J-249999D01*
G01*
X181361000Y-110186001D01*
G75*
G02*
X181111001Y-110436000I-249999J0D01*
G01*
X179060999Y-110436000D01*
G75*
G02*
X178811000Y-110186001I0J249999D01*
G01*
X178811000Y-108435999D01*
G75*
G02*
X179060999Y-108186000I249999J0D01*
G01*
G37*
G36*
G01*
X179060999Y-101786000D02*
X181111001Y-101786000D01*
G75*
G02*
X181361000Y-102035999I0J-249999D01*
G01*
X181361000Y-103786001D01*
G75*
G02*
X181111001Y-104036000I-249999J0D01*
G01*
X179060999Y-104036000D01*
G75*
G02*
X178811000Y-103786001I0J249999D01*
G01*
X178811000Y-102035999D01*
G75*
G02*
X179060999Y-101786000I249999J0D01*
G01*
G37*
%TD*%
%TO.C,C1*%
G36*
G01*
X120162999Y-108075000D02*
X122213001Y-108075000D01*
G75*
G02*
X122463000Y-108324999I0J-249999D01*
G01*
X122463000Y-110075001D01*
G75*
G02*
X122213001Y-110325000I-249999J0D01*
G01*
X120162999Y-110325000D01*
G75*
G02*
X119913000Y-110075001I0J249999D01*
G01*
X119913000Y-108324999D01*
G75*
G02*
X120162999Y-108075000I249999J0D01*
G01*
G37*
G36*
G01*
X120162999Y-101675000D02*
X122213001Y-101675000D01*
G75*
G02*
X122463000Y-101924999I0J-249999D01*
G01*
X122463000Y-103675001D01*
G75*
G02*
X122213001Y-103925000I-249999J0D01*
G01*
X120162999Y-103925000D01*
G75*
G02*
X119913000Y-103675001I0J249999D01*
G01*
X119913000Y-101924999D01*
G75*
G02*
X120162999Y-101675000I249999J0D01*
G01*
G37*
%TD*%
%TO.C,F1*%
G36*
G01*
X172831999Y-55458300D02*
X174132001Y-55458300D01*
G75*
G02*
X174382000Y-55708299I0J-249999D01*
G01*
X174382000Y-56783301D01*
G75*
G02*
X174132001Y-57033300I-249999J0D01*
G01*
X172831999Y-57033300D01*
G75*
G02*
X172582000Y-56783301I0J249999D01*
G01*
X172582000Y-55708299D01*
G75*
G02*
X172831999Y-55458300I249999J0D01*
G01*
G37*
G36*
G01*
X172832425Y-51283300D02*
X174131575Y-51283300D01*
G75*
G02*
X174382000Y-51533725I0J-250425D01*
G01*
X174382000Y-52607875D01*
G75*
G02*
X174131575Y-52858300I-250425J0D01*
G01*
X172832425Y-52858300D01*
G75*
G02*
X172582000Y-52607875I0J250425D01*
G01*
X172582000Y-51533725D01*
G75*
G02*
X172832425Y-51283300I250425J0D01*
G01*
G37*
%TD*%
D10*
%TO.C,J5*%
X183058000Y-51340400D03*
X183058000Y-45370400D03*
D11*
X187733000Y-41870400D03*
X184033000Y-41870400D03*
D12*
X193758000Y-42045400D03*
D13*
X193533000Y-53365400D03*
D14*
X193883000Y-51105400D03*
X193883000Y-50005400D03*
X193883000Y-48905400D03*
X193883000Y-47805400D03*
X193883000Y-46705400D03*
X193883000Y-45605400D03*
D15*
X193883000Y-52155400D03*
D14*
X193883000Y-44505400D03*
%TD*%
D16*
%TO.C,U2*%
X173802000Y-110095940D03*
X172532000Y-110095940D03*
X171262000Y-110095940D03*
X169992000Y-110095940D03*
X168722000Y-110095940D03*
X167452000Y-110095940D03*
X166182000Y-110095940D03*
X164912000Y-110095940D03*
X163642000Y-110095940D03*
X162372000Y-110095940D03*
X162372000Y-100896060D03*
X163642000Y-100896060D03*
X164912000Y-100896060D03*
X166182000Y-100896060D03*
X167452000Y-100896060D03*
X168722000Y-100896060D03*
X169992000Y-100896060D03*
X171262000Y-100896060D03*
X172532000Y-100896060D03*
X173802000Y-100896060D03*
%TD*%
M02*
